<svg width="32" height="32" viewBox="0 0 32 32" fill="none" xmlns="http://www.w3.org/2000/svg">
<path d="M15.9987 11.8352C13.7049 11.8352 11.8331 13.7071 11.8331 16.0008C11.8331 18.2946 13.7049 20.1665 15.9987 20.1665C18.2924 20.1665 20.1643 18.2946 20.1643 16.0008C20.1643 13.7071 18.2924 11.8352 15.9987 11.8352ZM28.4924 16.0008C28.4924 14.2758 28.5081 12.5665 28.4112 10.8446C28.3143 8.84458 27.8581 7.06958 26.3956 5.60708C24.9299 4.14146 23.1581 3.68833 21.1581 3.59146C19.4331 3.49458 17.7237 3.51021 16.0018 3.51021C14.2768 3.51021 12.5674 3.49458 10.8456 3.59146C8.84556 3.68833 7.07056 4.14458 5.60806 5.60708C4.14243 7.07271 3.68931 8.84458 3.59243 10.8446C3.49556 12.5696 3.51118 14.279 3.51118 16.0008C3.51118 17.7227 3.49556 19.4352 3.59243 21.1571C3.68931 23.1571 4.14556 24.9321 5.60806 26.3946C7.07368 27.8602 8.84556 28.3133 10.8456 28.4102C12.5706 28.5071 14.2799 28.4915 16.0018 28.4915C17.7268 28.4915 19.4362 28.5071 21.1581 28.4102C23.1581 28.3133 24.9331 27.8571 26.3956 26.3946C27.8612 24.929 28.3143 23.1571 28.4112 21.1571C28.5112 19.4352 28.4924 17.7258 28.4924 16.0008V16.0008ZM15.9987 22.4102C12.4518 22.4102 9.58931 19.5477 9.58931 16.0008C9.58931 12.454 12.4518 9.59146 15.9987 9.59146C19.5456 9.59146 22.4081 12.454 22.4081 16.0008C22.4081 19.5477 19.5456 22.4102 15.9987 22.4102ZM22.6706 10.8258C21.8424 10.8258 21.1737 10.1571 21.1737 9.32896C21.1737 8.50083 21.8424 7.83208 22.6706 7.83208C23.4987 7.83208 24.1674 8.50083 24.1674 9.32896C24.1677 9.5256 24.1291 9.72036 24.054 9.90208C23.9789 10.0838 23.8686 10.2489 23.7296 10.388C23.5905 10.527 23.4254 10.6373 23.2437 10.7124C23.062 10.7875 22.8672 10.8261 22.6706 10.8258V10.8258Z" fill="white"/>
</svg>
