<svg width="28" height="30" viewBox="0 0 28 30" fill="none" xmlns="http://www.w3.org/2000/svg">
<g filter="url(#filter0_d)">
<path d="M14.0938 15.7734C14.0938 15.8766 14.1734 15.9609 14.2695 15.9609H18.6055C18.7016 15.9609 18.7812 15.8766 18.7812 15.7734V14.6484C18.7812 14.5453 18.7016 14.4609 18.6055 14.4609H14.2695C14.1734 14.4609 14.0938 14.5453 14.0938 14.6484V15.7734ZM9.52578 15.9164L14.0258 12.143C14.1148 12.068 14.1148 11.9297 14.0258 11.8547L9.52578 8.08359C9.49862 8.06049 9.46539 8.04567 9.43005 8.04089C9.39472 8.03611 9.35875 8.04157 9.32642 8.05662C9.29409 8.07168 9.26677 8.09569 9.24768 8.12581C9.22859 8.15594 9.21855 8.1909 9.21875 8.22656V9.69609C9.21875 9.75234 9.24219 9.80391 9.28672 9.83906L11.8602 12L9.28672 14.1609C9.26577 14.1785 9.24885 14.2003 9.23712 14.225C9.22539 14.2497 9.21912 14.2766 9.21875 14.3039V15.7734C9.21875 15.9328 9.40391 16.0195 9.52578 15.9164ZM22.625 2.625H5.375C4.96016 2.625 4.625 2.96016 4.625 3.375V20.625C4.625 21.0398 4.96016 21.375 5.375 21.375H22.625C23.0398 21.375 23.375 21.0398 23.375 20.625V3.375C23.375 2.96016 23.0398 2.625 22.625 2.625ZM21.6875 19.6875H6.3125V4.3125H21.6875V19.6875Z" fill="#0593FB"/>
</g>
<defs>
<filter id="filter0_d" x="-2" y="0" width="32" height="32" filterUnits="userSpaceOnUse" color-interpolation-filters="sRGB">
<feFlood flood-opacity="0" result="BackgroundImageFix"/>
<feColorMatrix in="SourceAlpha" type="matrix" values="0 0 0 0 0 0 0 0 0 0 0 0 0 0 0 0 0 0 127 0"/>
<feOffset dy="4"/>
<feGaussianBlur stdDeviation="2"/>
<feColorMatrix type="matrix" values="0 0 0 0 0 0 0 0 0 0 0 0 0 0 0 0 0 0 0.25 0"/>
<feBlend mode="normal" in2="BackgroundImageFix" result="effect1_dropShadow"/>
<feBlend mode="normal" in="SourceGraphic" in2="effect1_dropShadow" result="shape"/>
</filter>
</defs>
</svg>
